<svg width="63" height="18" viewBox="0 0 63 18" fill="none" xmlns="http://www.w3.org/2000/svg">
    <path d="M11.5026 5.02058L6.4974 2.13063C6.19584 1.95646 5.80503 1.95646 5.5026 2.13063L0.498267 5.02058C0.191508 5.19736 0 5.52751 0 5.88193V11.661C0 12.0154 0.191508 12.3455 0.498267 12.5232L5.5026 15.4123C5.65338 15.4998 5.82582 15.5457 6 15.5457C6.17418 15.5457 6.34662 15.4998 6.4974 15.4123L11.5026 12.5232C11.8094 12.3455 12 12.0154 12 11.661V5.88193C12 5.52751 11.8094 5.19736 11.5026 5.02058ZM11.1023 11.3499L10.0685 10.6263C10.0165 10.5899 9.99567 10.5223 10.0173 10.4625L11.1023 7.52318V11.3499ZM6.04939 14.635C6.01906 14.6523 5.98094 14.6523 5.95147 14.635L5.83016 14.5648L3.05373 11.1454C2.9792 11.0544 3.04419 10.9175 3.16205 10.9175H8.83795C8.95581 10.9175 9.02166 11.0544 8.94714 11.1454L6.17071 14.5648L6.04939 14.635ZM0.897747 7.52318L1.98267 10.4625C2.0052 10.5223 1.9844 10.5899 1.93154 10.6263L0.897747 11.3499V7.52318ZM6.12132 5.02578L9.10572 10.1939C9.15945 10.2875 9.09185 10.4045 8.9844 10.4045H3.01646C2.90815 10.4045 2.84055 10.2875 2.89515 10.1939L5.87868 5.02578C5.93241 4.93219 6.06759 4.93219 6.12132 5.02578ZM11.0615 6.15316L9.7227 9.77881C9.68198 9.8906 9.52946 9.9036 9.47054 9.80048L6.70971 5.01885C6.64731 4.91053 6.74783 4.78055 6.86915 4.81434L10.9679 5.97032C11.0468 5.99198 11.0901 6.07691 11.0615 6.15316ZM5.28683 5.02578L2.53033 9.80048C2.47054 9.9036 2.31802 9.8906 2.2773 9.77881L0.948873 6.18003C0.920277 6.10377 0.962738 6.01885 1.04159 5.99632L5.12652 4.82127C5.24783 4.78575 5.35009 4.91659 5.28683 5.02578ZM2.17418 11.0821C2.23397 11.0405 2.31716 11.0518 2.36308 11.109L4.58666 13.8473L1.09965 11.8343L2.17418 11.0821ZM9.63692 11.109C9.68371 11.0518 9.76603 11.0405 9.82669 11.0821L10.9003 11.8343L7.41421 13.8473L9.63692 11.109ZM9.91594 5.14103L6.35875 4.13756C6.29809 4.12023 6.2565 4.06564 6.2565 4.00238V3.02838L9.91594 5.14103ZM5.7435 3.02838V4.00412C5.7435 4.06651 5.70277 4.12197 5.64211 4.1393L2.0078 5.18523L5.7435 3.02838Z" fill="url(#paint0_linear_2_33)"/>
    <path d="M15.756 13V5.272H17.064V13H15.756ZM18.5802 13V7.312H19.7802L19.8402 7.912C20.0962 7.712 20.4002 7.544 20.7522 7.408C21.1122 7.264 21.5082 7.192 21.9402 7.192C22.6762 7.192 23.2122 7.364 23.5482 7.708C23.8842 8.052 24.0522 8.588 24.0522 9.316V13H22.7562V9.376C22.7562 8.936 22.6642 8.628 22.4802 8.452C22.3042 8.276 21.9682 8.188 21.4722 8.188C21.1762 8.188 20.8842 8.248 20.5962 8.368C20.3162 8.488 20.0802 8.644 19.8882 8.836V13H18.5802ZM25.8657 13V8.332H25.0377V7.312H25.8657V6.616C25.8657 6.048 26.0217 5.592 26.3337 5.248C26.6537 4.896 27.1257 4.72 27.7497 4.72C27.9817 4.72 28.1937 4.74 28.3857 4.78C28.5777 4.812 28.7537 4.86 28.9137 4.924V5.86C28.6657 5.772 28.4137 5.728 28.1577 5.728C27.7817 5.728 27.5217 5.796 27.3777 5.932C27.2337 6.068 27.1617 6.3 27.1617 6.628V7.312H28.6497L28.5897 8.332H27.1617V13H25.8657ZM32.1441 13.12C31.1201 13.12 30.3681 12.864 29.8881 12.352C29.4161 11.84 29.1801 11.108 29.1801 10.156C29.1801 9.204 29.4201 8.472 29.9001 7.96C30.3801 7.448 31.1281 7.192 32.1441 7.192C33.1681 7.192 33.9201 7.448 34.4001 7.96C34.8801 8.472 35.1201 9.204 35.1201 10.156C35.1201 11.108 34.8801 11.84 34.4001 12.352C33.9281 12.864 33.1761 13.12 32.1441 13.12ZM32.1441 12.016C32.7441 12.016 33.1681 11.872 33.4161 11.584C33.6721 11.288 33.8001 10.812 33.8001 10.156C33.8001 9.5 33.6721 9.028 33.4161 8.74C33.1681 8.452 32.7441 8.308 32.1441 8.308C31.5521 8.308 31.1281 8.452 30.8721 8.74C30.6241 9.028 30.5001 9.5 30.5001 10.156C30.5001 10.812 30.6241 11.288 30.8721 11.584C31.1281 11.872 31.5521 12.016 32.1441 12.016ZM38.6967 15.112C38.2727 15.112 37.8487 15.084 37.4247 15.028C37.0007 14.98 36.6407 14.904 36.3447 14.8V13.792C36.6647 13.896 37.0327 13.976 37.4487 14.032C37.8647 14.088 38.2607 14.116 38.6367 14.116C39.2127 14.116 39.6327 14.084 39.8967 14.02C40.1607 13.956 40.2927 13.812 40.2927 13.588C40.2927 13.42 40.2287 13.3 40.1007 13.228C39.9727 13.164 39.7287 13.132 39.3687 13.132H37.8327C36.8007 13.132 36.2847 12.768 36.2847 12.04C36.2847 11.808 36.3527 11.592 36.4887 11.392C36.6247 11.192 36.8407 11.04 37.1367 10.936C36.8087 10.776 36.5647 10.556 36.4047 10.276C36.2527 9.996 36.1767 9.66 36.1767 9.268C36.1767 8.54 36.3927 8.012 36.8247 7.684C37.2647 7.356 37.9207 7.192 38.7927 7.192C38.9767 7.192 39.1687 7.208 39.3687 7.24C39.5687 7.264 39.7247 7.288 39.8367 7.312H41.9247L41.8887 8.164H40.9287C41.0807 8.292 41.1927 8.452 41.2647 8.644C41.3367 8.836 41.3727 9.044 41.3727 9.268C41.3727 9.876 41.1887 10.356 40.8207 10.708C40.4527 11.052 39.8967 11.224 39.1527 11.224C39.0247 11.224 38.9047 11.22 38.7927 11.212C38.6887 11.196 38.5727 11.18 38.4447 11.164C38.2047 11.188 37.9887 11.252 37.7967 11.356C37.6047 11.46 37.5087 11.6 37.5087 11.776C37.5087 11.896 37.5567 11.984 37.6527 12.04C37.7487 12.088 37.9087 12.112 38.1327 12.112H39.7287C40.2967 12.112 40.7327 12.236 41.0367 12.484C41.3487 12.724 41.5047 13.076 41.5047 13.54C41.5047 14.1 41.2607 14.5 40.7727 14.74C40.2927 14.988 39.6007 15.112 38.6967 15.112ZM38.7927 10.396C39.3127 10.396 39.6727 10.308 39.8727 10.132C40.0807 9.956 40.1847 9.656 40.1847 9.232C40.1847 8.808 40.0807 8.5 39.8727 8.308C39.6727 8.116 39.3127 8.02 38.7927 8.02C38.3047 8.02 37.9487 8.112 37.7247 8.296C37.5007 8.48 37.3887 8.792 37.3887 9.232C37.3887 9.64 37.4927 9.936 37.7007 10.12C37.9167 10.304 38.2807 10.396 38.7927 10.396ZM42.7326 13V7.312H43.9326L44.0046 7.972C44.2766 7.796 44.6006 7.636 44.9766 7.492C45.3526 7.348 45.7246 7.248 46.0926 7.192V8.188C45.8686 8.228 45.6246 8.288 45.3606 8.368C45.1046 8.44 44.8606 8.524 44.6286 8.62C44.3966 8.708 44.2006 8.8 44.0406 8.896V13H42.7326ZM48.4578 13.12C48.0978 13.12 47.7618 13.056 47.4498 12.928C47.1458 12.8 46.9018 12.608 46.7178 12.352C46.5338 12.088 46.4418 11.764 46.4418 11.38C46.4418 10.836 46.6258 10.4 46.9938 10.072C47.3698 9.736 47.9458 9.568 48.7218 9.568H50.5458V9.316C50.5458 9.044 50.5018 8.828 50.4138 8.668C50.3338 8.508 50.1818 8.392 49.9578 8.32C49.7418 8.248 49.4218 8.212 48.9978 8.212C48.3258 8.212 47.6978 8.312 47.1138 8.512V7.54C47.3698 7.436 47.6818 7.352 48.0498 7.288C48.4178 7.224 48.8138 7.192 49.2378 7.192C50.0698 7.192 50.7018 7.36 51.1338 7.696C51.5738 8.032 51.7938 8.58 51.7938 9.34V13H50.6778L50.5938 12.424C50.3618 12.648 50.0738 12.82 49.7298 12.94C49.3938 13.06 48.9698 13.12 48.4578 13.12ZM48.8058 12.184C49.1978 12.184 49.5378 12.12 49.8258 11.992C50.1218 11.856 50.3618 11.676 50.5458 11.452V10.456H48.7458C48.3618 10.456 48.0818 10.532 47.9058 10.684C47.7378 10.828 47.6538 11.052 47.6538 11.356C47.6538 11.652 47.7538 11.864 47.9538 11.992C48.1538 12.12 48.4378 12.184 48.8058 12.184ZM53.2443 13V7.312H54.4443L54.5043 7.912C54.7843 7.688 55.0923 7.512 55.4283 7.384C55.7643 7.256 56.1243 7.192 56.5083 7.192C56.9163 7.192 57.2323 7.26 57.4563 7.396C57.6883 7.524 57.8643 7.704 57.9843 7.936C58.2483 7.72 58.5523 7.544 58.8963 7.408C59.2403 7.264 59.6523 7.192 60.1323 7.192C60.7883 7.192 61.2723 7.36 61.5843 7.696C61.8963 8.032 62.0523 8.548 62.0523 9.244V13H60.7683V9.376C60.7683 8.936 60.6763 8.628 60.4923 8.452C60.3083 8.276 60.0083 8.188 59.5923 8.188C59.3203 8.188 59.0603 8.236 58.8123 8.332C58.5723 8.428 58.3643 8.572 58.1883 8.764C58.2123 8.852 58.2283 8.944 58.2363 9.04C58.2443 9.136 58.2483 9.24 58.2483 9.352V13H57.0363V9.388C57.0363 8.972 56.9643 8.668 56.8203 8.476C56.6763 8.284 56.4043 8.188 56.0043 8.188C55.7243 8.188 55.4563 8.256 55.2003 8.392C54.9523 8.52 54.7283 8.676 54.5283 8.86V13H53.2443Z" fill="#D7D4D4"/>
    <defs>
        <linearGradient id="paint0_linear_2_33" x1="3.5665e-07" y1="-1" x2="12.5" y2="17" gradientUnits="userSpaceOnUse">
            <stop stop-color="#6F1F8B"/>
            <stop offset="1" stop-color="#1576C3" stop-opacity="0"/>
        </linearGradient>
    </defs>
</svg>
